# xmcd CD database file
#
# Track frame offsets:
#	150
#	38435
#	81012
#	95682
#	175910
#
# Disc length: 2673 seconds
#
# Revision: 0
# Processed by: cddbd v1.5.1PL2 Copyright (c) Steve Scherf et al.
# Submitted via: CDex 1.51
#
DISCID=300a6f05
DTITLE=Derek Bailey/George Lewis/John Zorn - Yankees
DYEAR=1982
DGENRE=Avantgarde
TTITLE0=City City City
TTITLE1=The Legend Of Enos Slaughter
TTITLE2=Who's on First
TTITLE3=On Golden Pond
TTITLE4=The Warning Track
EXTD=YEAR: 1982
EXTT0=
EXTT1=
EXTT2=
EXTT3=
EXTT4=
PLAYORDER=
